<?xml version="1.0" encoding="UTF-8"?>
<svg id="Layer_1" data-name="Layer 1" xmlns="http://www.w3.org/2000/svg" xmlns:xlink="http://www.w3.org/1999/xlink" viewBox="0 0 1300 900">
  <defs>
    <style>
      .cls-1 {
        clip-path: url(#clippath);
      }

      .cls-2 {
        clip-path: url(#clippath-1);
      }

      .cls-3 {
        clip-path: url(#clippath-3);
      }

      .cls-4 {
        clip-path: url(#clippath-2);
      }

      .cls-5 {
        stroke-width: 0px;
      }

      .cls-5, .cls-6 {
        fill: #0f0a1e;
      }
    </style>
    <clipPath id="clippath">
      <polygon class="cls-5" points="410.09 427.85 403.98 437.78 414.83 456.1 428.42 479.02 449.46 479.02 419.65 427.85 410.09 427.85"/>
    </clipPath>
    <clipPath id="clippath-1">
      <polygon class="cls-5" points="427.65 396.53 417.72 414.1 426.72 414.1 465.3 479.02 476 479.02 481.12 469.86 439.11 396.53 427.65 396.53"/>
    </clipPath>
    <clipPath id="clippath-2">
      <polygon class="cls-5" points="465.08 396.53 455.15 414.1 464.15 414.1 489.1 456.1 500.17 437.78 476.54 396.53 465.08 396.53"/>
    </clipPath>
    <clipPath id="clippath-3">
      <polygon class="cls-5" points="410.09 479.02 403.98 479.02 403.98 488.95 412.58 503.47 428.42 503.47 428.42 494.08 419.65 479.02 410.09 479.02"/>
    </clipPath>
  </defs>
  <g>
    <polygon class="cls-5" points="583.31 410.52 583.31 464.24 574.83 464.24 574.83 431.09 559.69 450.95 556.81 450.95 541.6 431.01 541.6 464.24 533.11 464.24 533.11 410.52 536.08 410.52 558.25 440.06 580.43 410.52 583.31 410.52"/>
    <path class="cls-5" d="M626.86,464.24h-7.85v-4.4c-2.88,3.44-7.2,5.28-12.57,5.28-8.25,0-13.69-4.56-13.69-11.37s5.6-11.21,14.49-11.21h11.13v-2.56c0-5.45-3.04-8.41-8.41-8.41-4.4,0-7.61,1.92-10.89,5.85l-4.88-4.96c3.92-5.68,9.77-8.41,16.57-8.41,9.69,0,16.09,5.85,16.09,16.41v23.78ZM618.38,448.63h-10.09c-4.48,0-6.96,1.6-6.96,4.8s2.8,5.2,6.89,5.2c5.68,0,10.17-3.92,10.17-9.29v-.72Z"/>
    <polygon class="cls-5" points="673.3 424.93 654.32 465.12 651.44 465.12 632.39 424.93 641.36 424.93 652.88 450.95 664.33 424.93 673.3 424.93"/>
    <path class="cls-5" d="M685.39,447.34c1.04,6.41,6.08,10.33,12.81,10.33,4.08,0,7.93-1.52,11.45-4.64l4,5.77c-4.48,4.24-9.69,6.32-15.69,6.32-12.01,0-21.14-8.89-21.14-20.5-.24-11.29,9.21-20.82,20.34-20.58,10.41,0,18.18,7.77,18.18,18.01,0,1.68-.24,3.44-.64,5.28h-29.3ZM706.92,440.78c-.08-6.01-4.56-9.61-10.09-9.61s-10.01,3.76-11.29,9.61h21.38Z"/>
    <path class="cls-5" d="M759.28,464.24h-8.41v-23.46c0-5.44-3.44-9.13-8.57-9.13s-8.97,3.76-8.97,9.13v23.46h-8.41v-39.31h7.85v3.84c2.96-3.12,6.89-4.72,11.77-4.72,9.21,0,14.73,6.25,14.73,15.61v24.58Z"/>
    <path class="cls-5" d="M771.53,411.4h19.29c10.65,0,17.93,6.64,17.93,16.17s-7.28,16.25-17.93,16.25h-10.81v20.42h-8.49v-52.84ZM790.67,436.3c6.01,0,9.37-3.44,9.37-8.65s-3.36-8.73-9.37-8.73h-10.65v17.37h10.65Z"/>
    <path class="cls-5" d="M847.99,464.24h-7.85v-4.4c-2.88,3.44-7.21,5.28-12.57,5.28-8.25,0-13.69-4.56-13.69-11.37s5.6-11.21,14.49-11.21h11.13v-2.56c0-5.45-3.04-8.41-8.41-8.41-4.4,0-7.61,1.92-10.89,5.85l-4.88-4.96c3.92-5.68,9.77-8.41,16.57-8.41,9.69,0,16.09,5.85,16.09,16.41v23.78ZM839.5,448.63h-10.09c-4.48,0-6.96,1.6-6.96,4.8s2.8,5.2,6.88,5.2c5.69,0,10.17-3.92,10.17-9.29v-.72Z"/>
    <path class="cls-5" d="M896.02,424.93l-19.14,43.79c-3.28,7.45-7.68,10.81-14.41,10.81-2.16,0-4.32-.24-6.48-.8v-7.12c2.48.24,4,.32,4.64.32,3.92,0,6.65-1.36,8.57-5.77l1.6-3.68-15.69-37.55h9.05l11.29,28.58,11.61-28.58h8.97Z"/>
  </g>
  <g>
    <g>
      <polygon class="cls-6" points="410.09 427.85 403.98 437.78 414.83 456.1 428.42 479.02 449.46 479.02 419.65 427.85 410.09 427.85"/>
      <g class="cls-1">
        <rect class="cls-5" x="403.98" y="427.85" width="45.49" height="51.18"/>
      </g>
    </g>
    <g>
      <polygon class="cls-6" points="427.65 396.53 417.72 414.1 426.72 414.1 465.3 479.02 476 479.02 481.12 469.86 439.11 396.53 427.65 396.53"/>
      <g class="cls-2">
        <rect class="cls-5" x="417.72" y="396.53" width="63.4" height="82.49"/>
      </g>
    </g>
    <g>
      <polygon class="cls-6" points="465.08 396.53 455.15 414.1 464.15 414.1 489.1 456.1 500.17 437.78 476.54 396.53 465.08 396.53"/>
      <g class="cls-4">
        <rect class="cls-5" x="455.15" y="396.53" width="45.02" height="59.57"/>
      </g>
    </g>
    <g>
      <polygon class="cls-6" points="410.09 479.02 403.98 479.02 403.98 488.95 412.58 503.47 428.42 503.47 428.42 494.08 419.65 479.02 410.09 479.02"/>
      <g class="cls-3">
        <rect class="cls-5" x="403.98" y="479.03" width="24.44" height="24.44"/>
      </g>
    </g>
  </g>
</svg>