<?xml version="1.0" encoding="UTF-8"?>
<svg id="Layer_2" data-name="Layer 2" xmlns="http://www.w3.org/2000/svg" xmlns:xlink="http://www.w3.org/1999/xlink" viewBox="0 0 445.54 495.29">
  <defs>
    <style>
      .cls-1 {
        clip-path: url(#clippath);
      }

      .cls-2 {
        fill: none;
      }

      .cls-2, .cls-3, .cls-4, .cls-5, .cls-6 {
        stroke-width: 0px;
      }

      .cls-3 {
        fill: url(#linear-gradient);
      }

      .cls-7 {
        clip-path: url(#clippath-1);
      }

      .cls-8 {
        clip-path: url(#clippath-3);
      }

      .cls-9 {
        clip-path: url(#clippath-2);
      }

      .cls-4 {
        fill: url(#linear-gradient-4);
      }

      .cls-5 {
        fill: url(#linear-gradient-2);
      }

      .cls-6 {
        fill: url(#linear-gradient-3);
      }
    </style>
    <clipPath id="clippath">
      <polygon class="cls-2" points="28.3 145.05 0 191.04 50.28 275.89 113.21 382.08 210.68 382.08 72.58 145.05 28.3 145.05"/>
    </clipPath>
    <linearGradient id="linear-gradient" x1="809.87" y1="2210.11" x2="814.51" y2="2210.11" gradientTransform="translate(-36837.97 100792.54) scale(45.49 -45.49)" gradientUnits="userSpaceOnUse">
      <stop offset="0" stop-color="#e480ff"/>
      <stop offset="1" stop-color="#4625e0"/>
    </linearGradient>
    <clipPath id="clippath-1">
      <polygon class="cls-2" points="109.68 0 63.68 81.37 105.34 81.37 284.02 382.08 333.58 382.08 357.32 339.63 162.74 0 109.68 0"/>
    </clipPath>
    <linearGradient id="linear-gradient-2" x1="817.1" y1="2201.89" x2="821.73" y2="2201.89" gradientTransform="translate(-51737.52 139783.52) scale(63.4 -63.4)" xlink:href="#linear-gradient"/>
    <clipPath id="clippath-2">
      <polygon class="cls-2" points="283.02 0 237.03 81.37 278.69 81.37 394.28 275.89 445.54 191.04 336.09 0 283.02 0"/>
    </clipPath>
    <linearGradient id="linear-gradient-3" x1="813.77" y1="2212.63" x2="818.4" y2="2212.63" gradientTransform="translate(-36396.59 99744.84) scale(45.02 -45.02)" xlink:href="#linear-gradient"/>
    <clipPath id="clippath-3">
      <polygon class="cls-2" points="28.3 382.08 0 382.08 0 428.08 39.83 495.29 113.21 495.29 113.21 451.81 72.58 382.08 28.3 382.08"/>
    </clipPath>
    <linearGradient id="linear-gradient-4" x1="790.27" y1="2232.27" x2="794.9" y2="2232.27" gradientTransform="translate(-19315.8 55000.08) scale(24.44 -24.44)" xlink:href="#linear-gradient"/>
  </defs>
  <g id="Layer_1-2" data-name="Layer 1">
    <g>
      <g class="cls-1">
        <rect class="cls-3" x="0" y="145.05" width="210.68" height="237.03"/>
      </g>
      <g class="cls-7">
        <rect class="cls-5" x="63.68" y="0" width="293.64" height="382.08"/>
      </g>
      <g class="cls-9">
        <rect class="cls-6" x="237.03" width="208.51" height="275.89"/>
      </g>
      <g class="cls-8">
        <rect class="cls-4" x="0" y="382.08" width="113.21" height="113.21"/>
      </g>
    </g>
  </g>
</svg>